<?xml version="1.0" encoding="utf-8"?>
<!-- Generator: Adobe Illustrator 16.0.0, SVG Export Plug-In . SVG Version: 6.00 Build 0)  -->
<!DOCTYPE svg PUBLIC "-//W3C//DTD SVG 1.1//EN" "http://www.w3.org/Graphics/SVG/1.1/DTD/svg11.dtd">
<svg version="1.1" id="Layer_1" xmlns="http://www.w3.org/2000/svg" xmlns:xlink="http://www.w3.org/1999/xlink" x="0px" y="0px"
	 width="1000px" height="700px" viewBox="0 0 1000 700" enable-background="new 0 0 1000 700" xml:space="preserve">
<path fill="#42AF62" d="M503.196,46.262c-7.846-1.611-15.809-2.544-23.873-2.798c-11.925-0.376-24.532-0.651-36.332,1.333
	c-20.212,3.399-38.772,12.742-58.9,16.437c-0.186,0.211-0.374,0.417-0.552,0.64c-6.094,7.561-15.989,13.617-12.807,24.834
	c3.287,11.586,14.43,11.58,24.299,12.791c15.466,1.898,29.118-2.996,42.123-10.555c15.107-8.781,30.944-14.443,48.795-14.606
	c12.68-0.116,29.703,2.119,33.83-12.494C522.886,50.841,511.22,50.31,503.196,46.262z"/>
<path fill="#E7E1B1" d="M63.494,546.794c-22.898,0.048-40.452-10.959-50.647-29.91c-9.294-17.278-9.531-35.877,4.11-53.394
	c13.346-17.137,21.903-18.293,30.03,1.965c7.871,19.621,14.942,27.391,35.731,14.233c11.097-7.022,21.461,3.396,29.933,11.477
	c9.255,8.829,9.349,19.021,3.262,29.28C104.133,540.299,85.193,546.392,63.494,546.794z"/>
<path fill="#9DD2CA" d="M513.619,496.074c-9.778-18.507-19.168-37.26-30.181-55.002c-4.316-6.955-0.958-25.047-15.375-19.123
	c-11.963,4.914-0.601,17.321,0.422,26.377c0.263,2.326,1.911,4.508,2.98,6.729c8.82,18.324,11.372,35.688-5.16,51.857
	c-5.851,5.723-8.821,13.836-7.84,26.707c1.069,3.962,2.524,12.117,5.475,19.689c5.503,14.127,7.072,35.945,25.059,35.636
	c18.977-0.326,19.704-23.554,26.184-37.694c2.79-6.088,1.342-14.289,3.36-20.677c-0.753-7.624-1.452-15.252-2.073-22.888
	C515.695,503.864,514.587,499.979,513.619,496.074z"/>
<path fill="#42AF62" d="M943.197,507.403c0.768,17.894-8.922,29.255-23.726,36.997c-34.391,17.986-70.742,20.444-107.982,11.97
	c-8.324-1.894-20.17-4.147-18.76-15.869c1.314-10.927,13.261-12.539,21.588-12.264c25.923,0.854,48.155-8.309,69.949-20.826
	c19.424-11.156,39.467-7.604,59.162,0.262L943.197,507.403z"/>
<path fill="#9DD2CA" d="M41.035,472.295c-1.25-21.941,2.938-40.153,14.177-56.356c8.986-12.956,18.275-12.187,27.536-0.027
	c17.597,23.103,17.521,60.469-0.649,83.709c-10.061,12.868-4.921,24.688,1.2,36.867c5.847,11.634,15.449,29.754,3.137,34.78
	c-12.691,5.181-13.982-15.933-18.065-26.439C58.734,520.028,34.09,500.668,41.035,472.295z"/>
<path fill="#EA4A6F" d="M353.347,223.986c-22.346-2.536-38.902-3.995-54.042-11.271c-6.71-3.225-13.86-7.712-12.047-16.637
	c1.649-8.123,8.915-12.048,16.396-13.204c6.338-0.979,13.258-0.664,19.524,0.789c27.79,6.443,55.408,7.99,83.315,0.549
	c5.392-1.438,11.551-0.83,17.233-0.146c8.366,1.007,17.617,3.058,17.631,13.58c0.012,9.506-8.558,10.249-16.131,11.71
	C399.373,214.343,373.616,219.826,353.347,223.986z"/>
<path fill="#BFB156" d="M730.691,156.986c-0.005,10.584-2.471,15.608-8.766,17.515c-6.913,2.094-13.866,0.151-17.825-5.348
	c-6.165-8.564-11.076-18.083-16.042-27.45c-13.976-26.357-27.984-30.238-53.542-14.644c-4.894,2.986-9.937,5.773-15.097,8.266
	c-5.386,2.602-11.155,4.325-15.255-2c-3.416-5.271-2.777-10.667,0.273-16.24c17.112-31.268,61.304-38.962,85.64-13.043
	C706.016,121.015,718.663,141.076,730.691,156.986z"/>
<path fill="#EA4A6F" d="M869.956,274.015c21.146,3.127,38.803,2.682,54.735,10.538c7.352,3.626,16.023,7.635,14.205,17.772
	c-1.914,10.667-11.139,13.254-20.606,14.223c-2.446,0.25-5.106,0.606-7.386-0.056c-32.209-9.364-64.503-10.591-97.541-3.921
	c-10.958,2.212-26.211,1.355-27.484-13.399c-1.197-13.879,13.742-10.842,22.656-12.759
	C830.211,281.752,851.998,277.609,869.956,274.015z"/>
<path fill="#EA4A6F" d="M471.523,397.586c-1.776-14.771,2.716-29.895,10.01-44.865c3.875-7.954,8.674-11.235,16.881-10.571
	c8.29,0.672,10.899,7.214,11.851,13.638c0.939,6.344,0.697,13.181-0.588,19.482c-5.49,26.918-7.053,53.608,0.464,80.506
	c1.7,6.086,1.605,13.151,0.468,19.427c-1.281,7.069-3.4,15.39-12.467,16.327c-10.311,1.066-11.409-7.492-12.659-14.77
	C481.054,450.956,469.951,426.371,471.523,397.586z"/>
<path fill="#242E48" d="M214.871,325.404c4.755,0.742,11.594,0.746,17.616,2.966c13.834,5.097,15.601,13.903,4.545,23.771
	c-8.882,7.929-20.557,9.144-31.776,11.964c-22.164,5.574-43.733,13.482-65.835,19.342c-8.334,2.21-19.424,3.766-23.343-6.74
	c-3.623-9.712,3.239-18.23,11.445-22.348C154.591,340.777,181.975,327.562,214.871,325.404z"/>
<path fill="#242E48" d="M683.293,498.294c-0.894-0.05-3.37-0.058-5.812-0.352c-10.562-1.273-24.063-1.532-24.51-14.907
	c-0.398-11.973,12.616-19.719,22.182-19.568c23.269,0.366,42.134-11.887,63.226-17.326c4.746-1.225,9.439-3.99,14.11-3.89
	c9.79,0.211,23.646-7.07,27.792,6.891c3.92,13.197-7.316,21.298-18.252,25.694C737.037,484.883,712.752,497.669,683.293,498.294z"/>
<path fill="#BFB156" d="M159.843,266.749c-19.401-0.231-31.165-5.647-39.996-16.384c-12.03-14.624-23.585-29.641-35.197-44.604
	c-6.346-8.179-7.517-17.301,0.758-24.201c8.399-7.003,15.846-0.679,21.153,5.701c5.196,6.247,9.508,13.481,12.994,20.856
	c13.665,28.907,29.304,34.702,56.391,19.091c6.983-4.024,13.737-6.981,20.753-3.592c7.347,3.551,14.676,7.689,3.724,17.479
	C186.807,253.267,174.919,267.271,159.843,266.749z"/>
<path fill="#719D4A" d="M635.92,438.377c-7.552-1.244-16.482-2.598-25.37-4.201c-19.235-3.469-37.827-4.048-52.524,11.966
	c-5.171,5.634-10.807,8.128-16.859,2.319c-5.065-4.862-2.814-10.51,0.409-15.748c4.877-7.923,11.292-14.728,19.731-18.098
	c25.627-10.236,52.339-14.882,79.769-9.777c11.026,2.051,25.155,4.694,23.651,20.051C663.102,441.485,648.25,437.075,635.92,438.377
	z"/>
<path fill="#719D4A" d="M87.092,255.181c-17.505,0.146-30.86,0.481-42.892-5.777c-6.687-3.478-12.445-9.284-10.399-17.728
	c1.924-7.938,8.159-12.586,16.518-11.904c12.217,0.996,24.355,2.95,36.532,4.449c19.556,2.409,39.333,6.323,54.796-11.503
	c4.088-4.712,10.208-6.701,15.285-2.055c6.036,5.523,3.039,11.935-0.643,17.738c-9.68,15.255-25.953,19.61-41.69,23.769
	C104.415,254.862,93.438,254.56,87.092,255.181z"/>
<path fill="#BFB156" d="M165.905,375.877c0.515-11.698,0.701-19.099,1.203-26.478c0.555-8.162,6.097-11.181,13.31-11.75
	c6.59-0.52,13.477-1.189,16.125,7.333c6.931,22.301,12.278,44.923,2.589,67.521c-3.473,8.101-10.123,16.322-20.806,14.173
	c-9.669-1.944-7.521-11.326-8.414-18.371C168.366,396.114,166.896,383.914,165.905,375.877z"/>
<path fill="#BFB156" d="M938.919,164.672c-6.149,13.294,8.06,37.459-14.721,38.742c-23.717,1.336-19.403-23.749-21.861-39.23
	c-2.657-16.734-4.246-34.401,10.652-47.853c11.449-10.336,19.016-8.689,21.317,7.066
	C936.313,137.131,937.426,150.996,938.919,164.672z"/>
<path fill="#BFB156" d="M844.191,175.233c0-10.652-0.239-21.312,0.091-31.954c0.195-6.336,3.259-10.897,10.229-11.656
	c6.032-0.657,10.871,0.515,14.921,5.977c10.026,13.524,13.478,62.429,4.274,76.224c-4.426,6.634-9.278,14.667-19.364,11.525
	c-8.666-2.701-8.92-10.622-9.289-18.204c-0.52-10.638-1.374-21.26-2.086-31.889C843.376,175.249,843.784,175.241,844.191,175.233z"
	/>
<path fill="#9D3D56" d="M798.082,456.84c-7.25-0.479-14.119,0.282-20.148-1.618c-8.998-2.836-10.469-9.674-5.216-17.48
	c8.178-12.153,35.322-17.658,47.344-8.997c15.973,11.509,11.171,25.32,2.94,38.967c-2.115,3.507-4.351,7.098-7.216,9.963
	c-7.372,7.373-15.459,19.4-26.497,11.259c-11.385-8.396,0.709-17.097,5.276-25.07C795.729,461.829,796.675,459.67,798.082,456.84z"
	/>
<path fill="#9D3D56" d="M46.126,366.271c8.495,0,15.127-0.934,21.379,0.213c10.125,1.856,10.7,9.423,6.929,16.982
	c-5.486,10.999-36.857,17.628-48.043,10.055c-15.253-10.325-11.546-23.641-4.571-37.034c0.758-1.456,1.658-2.874,2.695-4.144
	c8.522-10.442,17.442-28.796,31.786-18.729C70.033,343.251,51.476,354.131,46.126,366.271z"/>
<path fill="#9D3D56" d="M236.604,569.642c9.823,5.169,29.539-8.236,29.066,11.629c-0.385,16.182-18.021,19.29-31.981,20.047
	c-22.146,1.201-32.928-15.351-24.048-35.492c1.313-2.979,2.803-6.012,4.825-8.525c8.389-10.431,16.877-29.598,31.221-20.006
	C261.025,547.552,240.715,558.782,236.604,569.642z"/>
<path fill="#D53834" d="M165.78,90.967c-16.233-5.474-33.37-17.677-55.039-17.883c-8.596-0.082-8.413-9.598-2.881-15.014
	c13.883-13.593,61.687-11.441,74.604,3.059c5.657,6.351,9.273,13.755,5.371,22.59C184.04,92.307,176.648,92.218,165.78,90.967z"/>
<path fill="#D53834" d="M576.498,212.488c7.828-19.498,23.333-36.087,22.029-59.091c-0.245-4.325,2.595-7.76,7.173-8.739
	c4.694-1.004,8.438,1.207,9.678,5.472c5.979,20.575,12.61,41.176,1.63,62.311c-4.851,9.335-11.304,16.376-22.402,16.862
	c-11.758,0.515-14.025-9.415-17.923-17.367C576.687,211.931,576.498,212.488,576.498,212.488z"/>
<path fill="#D53834" d="M349.549,434.392c-1.444,6.752-1.967,13.437-4.327,19.395c-5.75,14.518-14.694,28.96-32.364,20.867
	c-17.293-7.92-7.062-22.438-1.502-33.755c5.767-11.738,13.042-22.688,12.318-36.62c-0.315-6.053,1.239-12.05,8.719-12.245
	c7.124-0.186,9.175,5.422,10.406,11.437C344.914,413.807,347.286,424.09,349.549,434.392z"/>
<path fill="#D53834" d="M78.803,335.312c0.396-18.819,3.505-31.306,14.248-40.745c6.802-5.977,14.578-8.293,22.688-3.629
	c8.757,5.036,8.69,13.379,5.542,21.687c-6.903,18.208-21.257,33.642-19.995,54.933c0.225,3.798-3.479,5.277-6.934,5.518
	c-4.729,0.328-8.068-2.164-9.071-6.585C82.557,354.484,80.252,342.385,78.803,335.312z"/>
<path fill="#E75631" d="M282.919,386.493c-0.922,13.362-1.062,23.983-2.529,34.417c-1.765,12.551-9.573,18.514-22.38,16.679
	c-12.15-1.74-16.393-10.074-15.175-21.077c2.393-21.617,17.345-38.245,24.482-58.142c2.341-6.526,9.862-2.928,11.38,4.453
	C280.5,371.586,281.856,380.441,282.919,386.493z"/>
<path fill="#EA4A6F" d="M487.793,256.328c-0.667,10.435,0.981,20.451-9.143,23.125c-10.12,2.673-14.044-6.634-17.812-13.701
	c-10.017-18.785-8.699-39.851-10.856-60.123c-0.766-7.194,4.11-12.294,11.768-13.45c7.02-1.06,10.747,2.619,12.349,9.058
	C478.848,220.329,483.591,239.423,487.793,256.328z"/>
<path fill="#EA4A6F" d="M55.237,271.569c0-5.764-0.561-11.598,0.157-17.271c0.727-5.75,5.708-7.676,10.764-8.635
	c5.643-1.07,10.863,1.265,11.591,6.592c3.018,22.062,14.784,42.219,14.014,65.002c-0.224,6.625-0.648,14.273-8.483,16.228
	c-9.022,2.251-13.231-5.081-16.878-11.577C57.634,306.291,56.032,289.033,55.237,271.569z"/>
<path fill="#EA4A6F" d="M953.429,505.673c4.422-14.207-2.333-26.803-5.753-39.878c-2.481-9.485-6.254-18.864-7.039-28.487
	c-0.613-7.517-0.841-17.63,9.65-19.991c8.977-2.021,12.892,5.602,16.484,12.021c10.82,19.333,11.797,40.819,11.811,62.09
	c0.012,18.118-15.798,11.233-25.386,13.979C953.197,505.403,953.429,505.673,953.429,505.673z"/>
<path fill="#E75631" d="M891.641,256.296c-1.728,12.431-3.273,22.887-4.608,33.371c-1.218,9.564-7.265,10.086-14.168,7.075
	c-11.177-4.877-22.101-10.354-33.011-15.815c-4.888-2.446-11.894-4.057-9.677-11.799c1.899-6.635,9.085-8.781,13.897-7.169
	c11.505,3.856,15.295,0.971,17.259-10.967c1.385-8.42,9.537-13.121,18.938-11.835C891.76,240.726,889.051,251.191,891.641,256.296z"
	/>
<path fill="#E7E1B1" d="M119.811,163.958c0.401-5.719-0.801-12.226,1.54-16.991c4.769-9.706,6.116-25.446,18.353-26.137
	c17.174-0.97,8.562,15.903,11.321,24.673c2.895,9.198,3.259,19.194,4.712,28.844c1.371,9.104,12.788,21.631-6.258,24.446
	c-16.277,2.405-26.54-5.902-28.98-22.539c-0.588-4.011-0.087-8.182-0.087-12.279C120.211,163.969,120.011,163.963,119.811,163.958z"
	/>
<path fill="#EA4A6F" d="M362.277,454.69c-0.232,8.516-1.454,15.704-10.885,17.464c-9.955,1.858-12.932-4.12-14.152-12.504
	c-2.725-18.736-13.656-35.395-14.044-54.741c-0.152-7.577-0.129-16.329,7.799-19.314c10.234-3.854,14.3,5.857,18.468,12.437
	C360.534,415.503,357.318,436.377,362.277,454.69z"/>
<path fill="#E7E1B1" d="M304.19,497.704c1.021,10.661-3.069,18.96-10.208,26.661c-6.591,7.109-12.143,19.139-22.74,15.36
	c-13.983-4.985-2.675-16.663-2.484-25.43c0.215-9.833,0.525-19.665,0.857-29.494c0.301-8.909-1.275-20.186,10.945-21.343
	c11.042-1.046,17.247,8.586,21.53,17.372C304.44,485.65,303.595,492.029,304.19,497.704z"/>
<path fill="#E7E1B1" d="M318.575,553.07c-1.34,9.912-3.392,23.694-4.991,37.528c-0.769,6.658-0.32,13.875-9.675,14.238
	c-7.667,0.297-14.273-1.222-18.705-9.027c-10.756-18.945,2.358-58.132,22.522-65.834C317.83,526.116,319.025,528.21,318.575,553.07z
	"/>
<path fill="#42AF62" d="M868.296,433.599c0.572-13.158-1.66-31.151,12.575-44.597c3.979-3.758,8.538-9.051,14.948-5.104
	c5.581,3.437,7.027,10.159,4.883,15.408c-7.618,18.642-6.295,38.862-11.39,57.824c-1.818,6.77-4.395,16.108-13.895,14.369
	c-8.09-1.48-6.683-10.243-7.053-16.632C868.033,449.121,868.296,443.339,868.296,433.599z"/>
<path fill="#9DD2CA" d="M86.638,108.905c-0.758,7.605-0.74,15.093-2.441,22.167c-1.475,6.135-6.737,9.054-13.227,8.78
	c-5.739-0.242-8.417-3.592-9.892-9.014c-3.427-12.599-7.051-25.163-11.189-37.542c-3.768-11.271-4.502-22.86,8.421-26.608
	c13.502-3.917,21.213,7.307,25.479,18.133C86.675,92.149,85.832,100.947,86.638,108.905z"/>
<path fill="#9DD2CA" d="M651.4,266.169c0-6.53-0.401-13.092,0.109-19.582c0.549-6.966,6.506-9.376,11.984-10.489
	c6.709-1.363,10.21,2.938,12.067,9.273c3.673,12.53,7.53,25.022,11.827,37.35c3.876,11.122,4.626,22.038-7.495,27.402
	c-12.104,5.357-16.663-7.147-23.12-13.568C648.229,288.059,651.679,276.554,651.4,266.169z"/>
<path fill="#42AF62" d="M548.136,235.573c-1.325,9.797,1.363,23.402-6.302,35.185c-4.542,6.98-9.739,14.861-19.227,11.146
	c-8.68-3.399-7.115-12.828-5.025-19.429c5.251-16.578,6.941-33.591,9.094-50.647c1.018-8.067,3.295-18.44,13.359-17.405
	c9.032,0.929,7.215,11.518,7.955,18.492C548.676,219.384,548.136,225.982,548.136,235.573z"/>
<path fill="#42AF62" d="M597.298,456.164c-9.396-0.149-17.391,0.218-20.4-8.547c-2.758-8.03,3.887-11.846,9.019-15.594
	c11.868-8.666,23.67-17.67,38.693-20.354c6.662-1.19,13.462-1.463,17.382,5.416c3.856,6.767,0.466,12.764-3.826,17.863
	C627.027,448.184,611.741,453.35,597.298,456.164z"/>
<path fill="#42AF62" d="M483.279,271.866c-0.242,20.128,1.057,35.21-8.615,48.028c-4.102,5.435-9.205,10.412-16.457,8.51
	c-8.599-2.255-7.333-10.417-6.432-16.458c2.779-18.614,6.406-37.107,9.957-55.598c1.411-7.351,3.697-16.292,12.299-16.13
	c10.732,0.202,7.423,10.728,8.417,17.333C483.422,264.018,483.221,270.662,483.279,271.866z"/>
<path fill="#32957A" d="M769.005,403.742c-16.942-1.515-25.021-13.852-32.129-24.965c-6.654-10.405,4.684-15.403,11.592-20.906
	c3.195-2.546,6.127-5.477,8.894-8.494c5.013-5.465,9.939-12.83,18.313-7.322c7.473,4.914,6.686,13.909,2.582,19.954
	c-6.024,8.875-0.859,15.001,1.662,22.609C783.334,394.92,779.646,402.265,769.005,403.742z"/>
<path fill="#E7E1B1" d="M224.503,297.274c3.39-17.33,13.646-36.85,23.704-56.417c2.91-5.663,7.751-8.72,14.28-6.582
	c7.258,2.377,7.722,9.255,5.869,14.349c-8.099,22.263-17.031,44.228-25.94,66.188c-1.771,4.364-5.653,5.463-10.229,3.645
	C224.458,315.385,224.113,308.881,224.503,297.274z"/>
<path fill="#42AF62" d="M497.904,604.802c-16.957,0.562-19.148-7.814-14.295-20.485c0.835-2.181,2.625-4.284,4.506-5.73
	c15.894-12.211,32.519-22.704,53.856-15.966c4.705,1.485,9.738,6.854,6.163,11.347C535.043,590.418,517.901,601.062,497.904,604.802
	z"/>
<path fill="#D53834" d="M644.702,490.508c-0.453,15.34-1.185,34.508-18.697,38.006c-15.119,3.019-18.008-14.989-18.135-26.699
	c-0.172-15.803,2.796-32.728,24.064-33.518C647.614,467.715,643.368,480.865,644.702,490.508z"/>
<path fill="#E7E1B1" d="M947.663,118.376c1.817-16.504,3.44-32.789,5.48-49.021c0.827-6.582-3.236-17.219,8.402-16.961
	c10.533,0.233,16.088,8.548,15.431,18.757c-1.053,16.357-2.304,32.863-5.666,48.845c-1.879,8.937-4.437,23.447-15.19,22.564
	C942.146,141.414,950.384,126.749,947.663,118.376z"/>
<path fill="#E7E1B1" d="M249.125,161.334c-7.08,14.562-16.073,34.667-26.66,53.895c-3.351,6.085-11.886,5.783-17.858,2.008
	c-5.864-3.707-1.426-8.765,0.282-13.032c7.321-18.296,14.594-36.615,22.31-54.745c2.612-6.136,2.65-16.68,13.756-13.106
	C249.59,139.132,249.5,147.447,249.125,161.334z"/>
<path fill="#32957A" d="M408.799,157.632c12.234,3.951,21.769,11.543,27.694,22.552c6.458,11.997-3.572,17.242-11.205,23.417
	c-5.036,4.073-8.986,9.481-13.98,13.618c-3.692,3.059-8.204,5.328-13.298,2.184c-4.93-3.043-6.54-8.288-4.729-12.721
	c4.751-11.632,5.952-21.954,0.747-34.543C390.339,163.216,399.39,158.289,408.799,157.632z"/>
<path fill="#D53834" d="M808.267,222.812c0.646,12.11-1.818,19.84-5.668,27.203c-4.557,8.717-12.709,9.767-21.106,9.057
	c-11.449-0.97-8.024-10.333-8.605-17.035c-0.493-5.692-0.6-11.518,0.022-17.186c1.292-11.776,5.094-25.907,17.499-25.995
	C805.252,198.751,806.781,214.217,808.267,222.812z"/>
<path fill="#BFB156" d="M318.606,166.38c-0.328,15.019-1.784,28.14-11.045,38.619c-5.182,5.865-11.801,8.761-19.843,5.179
	c-6.923-3.084-9.12-8.672-9.389-15.824c-0.619-16.428,7.792-27.922,19.916-37.446c4.441-3.488,8.866-8.337,15.223-5.874
	C321.937,154.313,318.407,161.914,318.606,166.38z"/>
<path fill="#42AF62" d="M788.01,198.737c1.995-13.245,3.555-26.222,6.062-39.013c1.065-5.434,3.542-12.032,10.749-11.042
	c6.497,0.893,8.671,7.164,9.167,12.944c1.978,23.071,0.609,45.816-8.197,67.613c-1.45,3.588-1.534,8.63-6.891,8.74
	c-6.581,0.135-7.808-5.837-8.479-10.142C788.917,218.207,788.727,208.371,788.01,198.737z"/>
<path fill="#E75631" d="M476.775,136.128c2.554-13.506,2.322-26.089,8.838-37.099c3.423-5.784,6.85-11.518,15.242-9.6
	c7.567,1.729,11.115,7.013,11.692,14.066c1.789,21.86-12.004,38.733-19.959,57.236c-3.174,7.382-10.676,1.297-12.523-4.206
	C477.764,149.671,477.645,142.083,476.775,136.128z"/>
<path fill="#D53834" d="M313.87,343.899c-0.485,9.164-1.94,18.084-8.328,25.161c-5.278,5.847-12.243,8.877-19.937,6.651
	c-8.168-2.363-7.167-9.924-7.26-16.438c-0.083-5.744-0.405-11.521,0.046-17.23c1.008-12.766,4.813-27.894,18.637-27.209
	C310.846,315.52,313.321,331.029,313.87,343.899z"/>
<path fill="#D53834" d="M536.766,258.483c-0.753,16.62-1.355,35.756-19.829,37.764c-14.75,1.603-16.689-15.711-16.384-28.083
	c0.375-15.21,3-30.712,22.894-31.77C541.631,235.427,534.646,250.224,536.766,258.483z"/>
<path fill="#BFB156" d="M387.976,357.637c-0.557,16.045-3.262,31.428-20.753,38.022c-6.76,2.549-14.215-0.96-16.688-7.346
	c-6.521-16.833,1.285-30.441,12.821-42.082c5.57-5.62,11.412-13.942,20.891-9.039C392.958,341.7,386.872,350.57,387.976,357.637z"/>
<path fill="#42AF62" d="M394.332,510.741c-2.031,12.847-4.154,28.274-7.075,43.549c-0.88,4.603-3.432,10.037-9.237,10.019
	c-7.192-0.024-9.149-6.109-9.891-11.874c-2.77-21.539-0.051-42.622,6.812-63.096c1.668-4.979,1.515-12.965,8.93-13.039
	c9.335-0.095,8.16,8.617,9.185,14.6C394.017,496.518,393.849,502.33,394.332,510.741z"/>
<path fill="#282728" d="M584.055,364.382c3.562-13.694-4.021-34.165,12.717-35.048c19.41-1.023,16.803,20.901,18.783,34.411
	c2.119,14.468-4.829,33.274-17.441,33.054C577.876,396.443,590.063,374.284,584.055,364.382z"/>
<path fill="#EA4A6F" d="M238.835,307.564c-16.694-3.289-34.299-5.158-39.662-26.338c-1.663-6.568-3.949-13.151,2.54-17.875
	c7.099-5.168,12.486,0.208,16.934,4.853c6.837,7.139,12.859,14.817,24.223,14.688c8.093-0.093,18.62-0.674,17.227,11.421
	C258.818,305.417,248.063,305.931,238.835,307.564z"/>
<path fill="#BFB156" d="M917.886,565.94c4.625-15.1-0.59-37.734,25.327-39.707c12.547-0.955,16.923,8.564,15.173,19.847
	c-2.96,19.079-13.32,34.738-31.872,39.036C914.36,587.932,919.234,574.153,917.886,565.94z"/>
<path fill="#32957A" d="M949.116,204.642c2.066-7.803,5.268-18.71,7.765-29.776c1.434-6.354,1.075-14.224,10.2-13.646
	c7.704,0.489,9.348,7.78,11.856,13.852c5.812,14.067,2.385,27.3-3.431,40.162c-3.211,7.1-5.632,16.782-16.953,13.202
	C948.503,225.258,949.541,216.182,949.116,204.642z"/>
<path fill="#32957A" d="M586.639,171.759c-3.753,15.532-4.366,30.097-16.888,39.261c-3.553,2.601-8.384,1.895-11.227-1.56
	c-9.805-11.906-4.662-24.866-1.95-37.58c0.342-1.603,0.351-3.617,1.335-4.685c6.061-6.572-1.82-24.103,13.685-21.711
	C585.986,147.704,581.831,163.757,586.639,171.759z"/>
<path fill="#D53834" d="M130.5,502.471c-1.74-12.806,2.865-18.99,12.188-20.801c9.407-1.827,30.69,20.038,29.32,31.605
	c-1.195,10.081-3.824,25.613-16.05,23.938C136.813,534.592,135.818,514.272,130.5,502.471z"/>
<path fill="#32957A" d="M172.649,282.15c-2.747,12.094-5.396,24.117-8.237,36.095c-1.234,5.203-4.192,9.006-10.05,9.039
	c-4.755,0.026-6.982-3.296-8.944-7.203c-10.088-20.085-4.896-38.48,6.126-56.158c3.06-4.907,8.022-5.601,13.05-3.413
	C174.74,264.924,171.019,274.42,172.649,282.15z"/>
<path fill="#EA4A6F" d="M564.312,525.083c18.118,2.898,35.664,5.307,41.107,26.05c1.598,6.091,4.077,13.477-2.95,17.882
	c-6.852,4.295-12.421-0.037-17.262-4.84c-6.891-6.838-12.71-14.898-24.361-14.236c-7.006,0.398-15.373,0.772-14.762-10.597
	C546.763,526.762,555.995,526.229,564.312,525.083z"/>
<path fill="#EA4A6F" d="M275.1,112.492c-0.409-5.327,1.143-9.938,6.322-12.03c5.065-2.047,10.115-0.265,13.262,3.7
	c8.628,10.869,18.644,17.767,33.387,16.471c5.045-0.443,9.479,2.793,10.359,8.482c0.848,5.486-1.986,9.007-6.709,11.805
	c-12.993,7.698-25.471,3.096-37.68-1.564C282.054,134.779,278.036,123.851,275.1,112.492z"/>
<path fill="#282728" d="M832.83,347.939c-0.193-15.916,1.379-38.324,17.476-38c21.152,0.427,10.64,24.263,13.54,38.096
	c0.164,0.783,0.035,1.653-0.081,2.464c-1.466,10.233,0.337,24.813-12.085,26.612c-15.48,2.242-15.973-13.028-18.367-24.123
	C833.151,351.307,832.991,349.623,832.83,347.939z"/>
<path fill="#D53834" d="M629.33,256.173c-0.486,6.637-4.36,13.568-14.704,12.352c-17.317-2.036-25.181-15.866-27.459-30.038
	c-1.429-8.89,2.133-22.133,14.853-25.098C611.228,211.242,628.991,238.197,629.33,256.173z"/>
<path fill="#EA4A6F" d="M674.963,49.822c18.646,1.29,35.35,6.305,40.017,28.515c1.026,4.885,1.894,9.776-2.206,13.889
	c-5.047,5.064-10.509,0.503-13.271-1.617c-11.674-8.965-22.419-18.24-38.734-17.974c-6.061,0.099-10.139-6.786-7.495-13.032
	C657.017,50.757,665.775,49.984,674.963,49.822z"/>
<path fill="#32957A" d="M350.136,285.637c-1.671,6.487-4.177,15.97-6.546,25.486c-1.863,7.486,0.001,18.886-12.389,17.066
	c-9.533-1.4-10.843-11.528-12.419-19.389c-2.335-11.653,0.048-23.038,5.2-33.637c3.513-7.226,6.674-16.791,17.353-13.653
	C351.49,264.494,349.838,274.215,350.136,285.637z"/>
<path fill="#D53834" d="M40.202,285.371c16.678,3.751,25.538,16.894,27.397,30.997c1.21,9.17-3.307,27.875-17.13,24.722
	c-17.255-3.936-21.123-23.247-24.174-39.237C24.519,292.55,30.562,286.765,40.202,285.371z"/>
<path fill="#EA4A6F" d="M327.605,309.655c2.517-11.971-9.405-28.6,8.848-29.931c15.407-1.124,21.253,14.051,20.208,28.037
	c-0.93,12.441,5.115,32.725-15.405,32.566C317.636,340.146,334.846,317.859,327.605,309.655z"/>
<path fill="#32957A" d="M203.383,425.724c-4.647-0.213-12.351-0.793-11.701-11.535c0.541-8.952,35.85-29.458,49.001-27.784
	c6.312,0.804,13.122,3.368,13.828,11.549C255.494,409.354,226.264,426.187,203.383,425.724z"/>
<path fill="#32957A" d="M642.358,382.922c-11.256,0.277-18.804-0.166-18.625-10.92c0.149-8.97,34.974-30.061,48.555-28.515
	c7.457,0.849,17.037,6.339,13.82,13.822C677.604,377.096,657.729,379.81,642.358,382.922z"/>
<path fill="#32957A" d="M950.957,347.509c-1.698,10.336-6.372,14.599-12.906,17.15c-9.917,3.872-20.09,7.183-29.729,11.648
	c-8.589,3.979-15.029,0.417-19.235-5.703c-5.902-8.589,1.71-13.247,7.645-17.739c11.532-8.731,24.965-12.545,39.013-13.787
	C943.376,338.404,950.519,340.445,950.957,347.509z"/>
<path fill="#EA4A6F" d="M20.69,137.5c4.053-9.51-8.973-26.54,8.882-28.055c15.101-1.282,21.381,13.253,20.399,27.691
	c-0.848,12.463,6.178,31.992-14.94,32.261C10.903,169.704,26.391,148.205,20.69,137.5z"/>
<path fill="#EA4A6F" d="M866.775,490.658c0.183,9.885-1.942,18.885-11.397,16.569c-17.979-4.403-19.761-19.739-19.091-35.481
	c0.484-11.387-1.239-27.728,15.315-24.602C879.547,452.419,853.963,479.573,866.775,490.658z"/>
<path fill="#A8D3D9" d="M715.425,561.271c0.539,11.941-19.296,32.931-31.762,33.085c-8.521,0.106-14.097-5.378-15.886-12.883
	c-2.373-9.952,22.022-35.822,32.759-35.768C710.841,545.758,715.075,551.683,715.425,561.271z"/>
<path fill="#A8D3D9" d="M699.535,442.117c-8.188-0.285-13.484-5.227-13.432-15.297c0.053-10.418,22.732-34.408,32.502-33.324
	c7.171,0.795,14.934,3.02,15.566,12.674C734.9,417.297,712.172,442.012,699.535,442.117z"/>
<path fill="#242E48" d="M106.068,442.509c0.554,6.945-0.087,14.298-7.571,16.437c-9.98,2.852-11.7-5.508-14.255-12.657
	c-3.844-10.757-9.572-20.964-12.319-31.95c-2.106-8.422,1.966-17.271,10.702-19.945c9.929-3.041,11.606,5.516,13.503,12.943
	C99.143,419.145,106.618,429.693,106.068,442.509z"/>
<path fill="#242E48" d="M630.553,543.96c-0.01-7.354-0.936-15.587,8.881-17.482c8.965-1.731,10.271,5.863,12.598,11.891
	c4.389,11.369,10.006,22.423,12.907,34.152c2.085,8.431-2.146,16.604-11.727,18.53c-8.988,1.808-10.391-6.166-12.013-12.271
	C638.078,567.031,630.189,556.752,630.553,543.96z"/>
<path fill="#A8D3D9" d="M809.347,562.126c16.895,5.183,31.231,14.477,41.066,29.049c5.587,8.278-1.429,15.264-8.305,16.754
	c-12.012,2.604-21.487-5.674-30.229-12.661c-7.656-6.119-14.342-13.633-12.455-24.927
	C800.356,564.763,803.335,561.582,809.347,562.126z"/>
<path fill="#242E48" d="M765.354,267.155c-0.126,1.946,1.104,9.503-7.251,11.662c-10.058,2.598-11.961-5.171-14.448-12.345
	c-3.722-10.734-8.913-21.042-11.716-31.983c-2.189-8.548,1.585-16.793,10.485-19.574c10.695-3.342,11.194,5.912,13.27,12.84
	C759.169,239.36,766.019,250.002,765.354,267.155z"/>
<path fill="#A8D3D9" d="M169.208,441.389c-0.702,9.139-6.058,11.656-11.892,12.263c-14.78,1.537-40.468-21.257-41.361-36.371
	c-0.457-7.729,2.632-19.694,9.917-14.916C142.255,413.109,155.52,428.611,169.208,441.389z"/>
<path fill="#A8D3D9" d="M645.523,206.402c0.185,10.693-0.472,16.729-6.731,19.251c-6.601,2.659-11.055-1.88-14.153-6.789
	c-6.846-10.842-11.013-23.306-25.264-28.328c-5.375-1.895-4.309-10.386-2.067-15.694c2.695-6.386,8.14-3.56,12.632-1.96
	C628.403,179.457,644.628,188.207,645.523,206.402z"/>
<path fill="#A8D3D9" d="M832.83,347.939c0.161,1.684,0.321,3.367,0.482,5.049c-1.241,2.058-3.145,3.982-3.603,6.205
	c-1.562,7.575,2.481,18.418-8.141,20.953c-10.815,2.582-12.499-8.457-15.969-15.334c-3.459-6.855-7.998-12.371-14.604-16.089
	c-7.753-4.363-14.766-9.819-8.611-19.238c6.707-10.265,14.303-1.31,21.549,0.808C815.202,333.587,820.61,346.32,832.83,347.939z"/>
<path fill="#A8D3D9" d="M461.431,531.162c0.751,10.504-22.12,32.754-33.764,33.499c-8.953,0.573-14.151-3.705-14.246-12.885
	c-0.11-10.703,21.874-35.594,31.406-35.216C454.399,516.939,459.224,523.328,461.431,531.162z"/>
<path fill="#242E48" d="M373.466,428.271c-0.304-10.746,0.694-17.886,7.765-20.325c8.063-2.783,11.092,3.248,13.59,10.084
	c4.71,12.893,13.798,24.25,13.408,38.9c-0.189,7.1-2.732,12.907-10.032,15.1c-9.163,2.752-10.98-4.464-13.171-10.551
	C380.64,449.289,376.497,437.014,373.466,428.271z"/>
<path fill="#E8E3CA" d="M437.081,381.564c0,12.18,1.74,20.078-0.382,26.749c-3.772,11.854-17.329,11.65-20.43,4.42
	c-5.773-13.458-12.548-29.024-5.545-44.492c3.002-6.63,9.269-12.801,17.742-9.567C442.085,363.872,436.33,376.528,437.081,381.564z"
	/>
<path fill="#A8D3D9" d="M865.224,394.268c19.953,4.084,32.99,15.666,41.125,30.809c5.615,10.451-2.53,18.166-13.542,15.48
	c-16.574-4.041-28.185-16.564-36.506-30.653C851.014,400.949,856.322,394.607,865.224,394.268z"/>
<path fill="#A8D3D9" d="M398.038,268.032c0.209-5.694-0.602-12.257,6.898-13.892c5.437-1.187,9.989,2.011,11.984,6.728
	c4.979,11.774,11.698,20.932,24.624,25.393c5.553,1.917,7.305,8.569,5.383,14.841c-1.821,5.941-6.631,6.458-11.81,6.162
	C414.927,306.109,397.373,287.543,398.038,268.032z"/>
<path fill="#282728" d="M372.012,235.822c-4.991,9.604-12.774,13.52-22.76,11.229c-14.547-3.336-27.039-10.793-27.881-26.974
	c-0.438-8.423,9.738-12.88,16.58-9.942C351.109,215.787,366.326,220.101,372.012,235.822z"/>
<path fill="#A8D3D9" d="M768.154,579.576c0.03,4.55-2.116,7.733-6.171,9.655c-12.151,5.759-47.087-18.233-46.724-32.109
	c0.143-5.431,2.321-9.24,8.081-10.669C735.411,543.459,767.945,567.392,768.154,579.576z"/>
<path fill="#282728" d="M855.06,262.941c-14.527-4.228-28.924-8.923-30.849-27.062c-0.93-8.764,6.885-10.758,13.295-11.408
	c10.76-1.092,37.045,17.786,36.08,25.575C872.277,260.618,863.242,261.152,855.06,262.941z"/>
<path fill="#32957A" d="M162.181,536.507c-13.441-1.28-25.793-8.979-29.693-24.631c-2.062-8.278,8.369-14.811,14.173-12.854
	c13.253,4.467,27.058,11.817,32.146,25.736C182.019,533.543,172.998,536.559,162.181,536.507z"/>
<path fill="#282728" d="M608.287,273.006c12.143,3.625,24.934,10.562,26.205,26.333c0.68,8.433-10.089,12.174-16.76,9.452
	c-12.956-5.285-31.406-7.353-32.68-24.96C584.32,273.697,596.598,271.93,608.287,273.006z"/>
<path fill="#32957A" d="M769.548,595.264c-10.242-10.281-26.514-13.606-31.499-28.148c-3.211-9.365,5.447-12.565,13.486-12.008
	c15.877,1.102,27.975,9.222,32.397,24.415C786.468,588.233,776.406,590.359,769.548,595.264z"/>
<path fill="#9D3D56" d="M519.675,215.006c-0.189,4.382-3.018,8.623-8.86,7.735c-16.332-2.482-32.345-6.063-42.211-21.565
	c-3.834-6.025-3.129-10.85,3.12-14.373C479.737,182.286,519.076,204.414,519.675,215.006z"/>
<path fill="#9D3D56" d="M466.111,150.913c-0.8,5.85-4.767,10.249-9.617,8.767c-15.995-4.886-30.944-12.401-42.416-24.968
	c-2.09-2.29-2.893-8.569,2.509-10.158c10.825-3.184,20.833,0.662,30.288,5.542C455.729,134.666,462.885,141.116,466.111,150.913z"/>
<path fill="#9D3D56" d="M147.81,558.742c3.929,0.999,8.898,0.867,11.586,3.278c9.524,8.539,29.769,15.255,21.757,29.446
	c-7.263,12.863-18.289-4.423-27.648-8.461c-4.444-1.917-9.163-3.306-13.374-5.629c-5.279-2.912-9.151-7.494-6.725-13.863
	C135.997,556.712,141.902,557.071,147.81,558.742z"/>
<path fill="#32957A" d="M609.474,279.5c14.721,3.987,27.559,10.005,31.015,25.252c1.98,8.738-6.778,15.324-13.447,13.117
	c-13.34-4.415-27.537-11.357-31.652-26.207C592.868,282.565,602.82,280.986,609.474,279.5z"/>
<path fill="#9D3D56" d="M568.902,312.07c10.903,6.161,24.672,11.964,35.775,21.031c5.735,4.683,4.85,15.202-6.998,14.592
	c-16.196-0.833-30.418-7.051-40.58-20.455c-2.573-3.393-3.991-7.264-1.318-11.377C558.399,311.832,562.499,311.701,568.902,312.07z"
	/>
<path fill="#32957A" d="M730.401,353.569c-13.254-3.421-24.597-10.629-26.963-24.763c-1.454-8.684,7.095-13.961,15.065-10.293
	c12.046,5.543,28.58,8.55,30.604,24.521C750.581,354.658,738.792,352.861,730.401,353.569z"/>
<path fill="#9DD2CA" d="M675.863,316.896c0-5.791-0.207-10.668,0.052-15.52c0.331-6.207,2.645-11.535,9.817-11.406
	c7.158,0.13,8.969,5.826,9.733,11.77c0.413,3.214,0.21,6.536,0.877,9.683c2.814,13.28,9.351,32.119-9.184,33.796
	C669.722,346.795,679.245,326.365,675.863,316.896z"/>
<path fill="#E8E3CA" d="M286.926,494.98c-1.134,5.249-5.254,6.223-9.381,5.342c-14.439-3.081-28.896-6.279-40.78-16.016
	c-3.994-3.272-7.625-6.786-5.917-12.398c1.884-6.189,7.493-5.435,12.33-5.459C256.119,466.386,287.698,487.063,286.926,494.98z"/>
<path fill="#9DD2CA" d="M769.579,294.455c-0.514,8.192,1.457,18.545-9.928,16.051c-10.708-2.348-23.836-6.765-23.01-20.989
	c0.521-8.992,4.306-21.89,16.501-20.407C766.808,270.771,767.977,284.248,769.579,294.455z"/>
<path fill="#E8E3CA" d="M176.815,471.846c15.887,4.611,29.85,10.719,36.817,26.164c1.416,3.139-1.208,7.441-4.652,7.072
	c-17.313-1.856-33.196-7.805-46.112-19.83c-1.69-1.574-1.964-6.621-0.764-8.975C165.43,469.759,172.141,472.955,176.815,471.846z"/>
<path fill="#9DD2CA" d="M140.017,406.618c-0.708,12.829-2.962,23.418-13.916,22.651c-10.41-0.728-9.802-10.812-7.483-19.247
	c0.213-0.773,0.361-1.601,0.341-2.397c-0.299-12.23-13.172-32.54,8.603-32.681C143.932,374.838,131.002,399.291,140.017,406.618z"/>
<path fill="#E8E3CA" d="M54.384,238.092c-17.25,0.155-26.847-12.39-38.624-20.871c-3.048-2.195-2.987-5.815-0.708-8.648
	c2.839-3.526,6.676-4.316,11.005-2.621c11.436,4.479,23.001,8.646,34.305,13.435c5.717,2.422,9.463,7.804,7.981,13.706
	C66.429,240.712,58.837,237.059,54.384,238.092z"/>
<path fill="#242E48" d="M726.304,457.896c0.345,5.644-2.435,12.044-7.62,9.405c-13.438-6.838-28.826-12.08-36.812-26.192
	c-2.951-5.214,2.213-8.646,7.503-9.973C700.594,428.322,725.515,446.37,726.304,457.896z"/>
<path fill="#9DD2CA" d="M422.911,477.074c5.943-0.143,9.048,2.896,9.74,8.66c1.266,10.531,2.809,21.037,3.712,31.6
	c0.644,7.533-2.741,12.947-10.775,13.622c-7.097,0.598-10.912-4.389-11.448-10.414c-1.016-11.409-1.188-22.935-0.938-34.396
	C413.321,480.707,417.054,477.311,422.911,477.074z"/>
<path fill="#E8E3CA" d="M370.289,358.161c13.732,6.003,28.543,12.119,42.972,19.033c3.667,1.757,5.192,6.821,2.656,10.613
	c-1.484,2.221-5.319,4.396-7.854,4.146c-18.193-1.803-34.974-7.033-45.715-23.387C357.135,360.629,362.386,358.803,370.289,358.161z
	"/>
<path fill="#242E48" d="M419.418,301.229c-1.682,9.142-7.027,10.696-13.186,10.37c-10.884-0.576-34.627-22.362-32.514-30.032
	c1.374-4.989,6.944-10.486,10.634-6.804C395.042,285.427,414.206,285.621,419.418,301.229z"/>
<path fill="#D6A1A6" d="M966.611,207.675c-8.017-2.665-21.441-2.687-20.587-15.15c0.875-12.762,12.926-15.168,24.407-14.33
	c10.29,0.752,17.79,5.634,17.021,16.652C986.631,206.613,977.454,208.287,966.611,207.675z"/>
<path fill="#9DD2CA" d="M294.601,255.61c0,4.906,0.116,9.815-0.03,14.717c-0.177,5.934-0.888,12.101-8.478,12.582
	c-7.089,0.448-10.302-4.841-10.924-10.855c-1.007-9.743-1.486-19.595-1.315-29.386c0.127-7.247,0.6-16.525,10.54-16.115
	c9.667,0.399,9.841,9.098,9.562,16.789c-0.147,4.085-0.026,8.179-0.026,12.27C294.154,255.61,294.377,255.61,294.601,255.61z"/>
<path fill="#D6A1A6" d="M605.58,517.008c-11.123-0.539-20.108-4.635-19.071-17.261c0.976-11.892,10.916-13.585,20.345-12.13
	c9.352,1.444,22.296,2.404,21.281,15.231C627.248,514.057,616.407,517.375,605.58,517.008z"/>
<path fill="#9DD2CA" d="M213.677,560.323c16.377,1.216,16.068,14.748,19.206,24.946c1.951,6.34,1.27,14.654-7.81,14.291
	c-10.547-0.422-22.58-3.566-23.913-16.043C200.211,574.641,202.833,564.091,213.677,560.323z"/>
<path fill="#D6A1A6" d="M29.776,560.943c8.386,4.349,23.831,0.762,23.935,14.96c0.077,10.382-10.517,16.261-21.131,15.895
	c-10.43-0.359-19.509-5.377-20.173-17.109C11.788,563.743,21.401,562.968,29.776,560.943z"/>
<path fill="#9DD2CA" d="M412.913,463.153c-0.188-9.445,0.122-18.06,10.883-16.346c9.58,1.525,21.105,5.877,20.724,16.893
	c-0.295,8.517-3.811,21.607-16.028,21.498C414.189,485.071,414.282,472.011,412.913,463.153z"/>
<path fill="#9DD2CA" d="M457.163,369.701c1.147-7.231-1.867-17.896,9.866-15.547c9.912,1.985,21.706,5.92,20.073,19.938
	c-1.007,8.646-3.861,20.881-13.437,20.594C459.447,394.26,458.971,380.213,457.163,369.701z"/>
<path fill="#242E48" d="M928.174,555.281c10.35,7.173,22.525,15.016,33.878,23.91c2.729,2.139,2.198,7.863-2.021,10.521
	c-7.171,4.517-16.11,3.51-20.26-1.896c-7.032-9.161-25.215-10.118-21.191-27.471C919.433,556.666,922.445,555.506,928.174,555.281z"
	/>
<path fill="#E75631" d="M351.691,558.079c0.371-7.617,1.41-16.926,8.709-15.84c9.464,1.406,17.576,8.753,16.664,20.364
	c-0.591,7.53-3.539,15.313-12.87,14.626C351.924,576.325,352.599,565.901,351.691,558.079z"/>
<path fill="#242E48" d="M959.412,476.521c-0.756,7.503-2.88,13.781-8.655,10.709c-12.988-6.911-29.207-11.362-33.933-27.564
	c-2.116-7.256,5.646-8.94,11.552-8.24C944.823,453.375,950.278,468.106,959.412,476.521z"/>
<path fill="#E75631" d="M585.887,67.618c1.427-6.75-0.069-17.434,10.125-15.81c8.369,1.333,15.575,8.12,15.333,19.134
	c-0.187,8.443-2.984,15.2-11.789,15.63C586.459,87.213,587.485,76.159,585.887,67.618z"/>
<path fill="#BFB156" d="M791.613,301.669c-8.4-0.241-11.16-5.438-11.326-12.984c-0.208-9.452,0.033-19.594,12.047-20.77
	c8.901-0.872,9.518,7.834,9.957,14.209C802.868,290.505,802.368,299.035,791.613,301.669z"/>
<path fill="#BFB156" d="M576.498,212.488c0,0,0.188-0.557,0.185-0.553c-5.587,3.673-9.293,12.218-18.292,6.996
	c-6.047-3.509-6.15-9.481-5.225-15.015c1.146-6.854,0.875-16.333,10.715-16.522c9.634-0.184,10.896,7.556,10.636,15.621
	C574.415,206.147,575.794,209.329,576.498,212.488z"/>
<path fill="#E8E3CA" d="M809.309,411.033c-0.188,8.256-4.567,12.425-12.444,10.674c-10.604-2.357-17.042-9.295-16.704-20.65
	c0.179-5.998,3.305-13.022,9.771-11.191C799.841,392.672,809.704,397.79,809.309,411.033z"/>
<path fill="#E8E3CA" d="M849.058,348.163c-1.299,8.811-5.629,16.192-14.619,16.696c-7.959,0.446-14.183-5.926-13.227-13.953
	c1.041-8.741,5.341-19.05,14.939-19.828C845.366,330.331,848.555,339.443,849.058,348.163z"/>
<path fill="#9DD2CA" d="M358.2,481.746c9.267,0.641,18.894,1.742,18.583,13.968c-0.2,7.851-7.034,12.153-13.697,9.204
	c-7.942-3.516-22.253-0.353-21.977-14.242C341.299,481.059,350.933,481.959,358.2,481.746z"/>
<path fill="#E8E3CA" d="M976.264,271.528c-2.108,8.97-9.212,11.623-16.476,10.988c-8.808-0.77-15.094-6.884-15.54-15.934
	c-0.447-9.045,6.021-12.667,14.402-12.53C969.988,254.238,972.68,263.303,976.264,271.528z"/>
<path fill="#E8E3CA" d="M308.63,68.598c0.212,9.884-0.372,16.723-9.66,16.387c-10.153-0.368-17.233-6.199-18.691-15.984
	c-1.351-9.068,5.063-13.176,13.605-13.143C304.029,55.896,308.106,62.185,308.63,68.598z"/>
<path fill="#E8E3CA" d="M500.29,284.858c9.867,3.961,20.131,8.192,20.729,20.982c0.297,6.366-4.464,11.274-10.925,10.752
	c-11.48-0.93-17.084-8.655-17.643-19.729C492.184,291.552,490.87,284.647,500.29,284.858z"/>
<path fill="#BFB156" d="M699.874,206.669c-0.916,8.188-2.004,15.984-12.343,14.803c-10.316-1.178-9.706-8.799-8.622-16.509
	c0.997-7.082-0.054-16.043,10.558-15.715C701.555,189.621,699.604,199.351,699.874,206.669z"/>
<path fill="#E8E3CA" d="M705.105,391.97c-0.493,8.389-4.215,14.862-13.294,13.502c-9.815-1.47-15.485-8.538-15.733-18.736
	c-0.226-9.287,6.541-9.867,13.46-9.693C699.197,377.284,704.642,381.985,705.105,391.97z"/>
<path fill="#9DD2CA" d="M916.773,64.472c-1.004,9.331-6.819,11.19-13.886,11.225c-10.662,0.053-19.655-3.23-21.649-14.912
	c-0.943-5.521,4.479-10.11,9.131-8.683C899.666,54.955,911.956,53.009,916.773,64.472z"/>
<path fill="#282728" d="M695.016,240.654c-1.205,7.869-6.746,11.762-13.517,11.566c-10.439-0.302-15.854-7.191-16.087-17.449
	c-0.16-7.069,5.219-10.349,11.107-10.312C686.821,224.525,692.216,231.45,695.016,240.654z"/>
<path fill="#282728" d="M740.992,230.408c1.005,11.4-3.772,14.101-11.722,14.094c-10.198-0.009-15.531-6.149-16.729-14.896
	c-1.09-7.946,4.675-11.342,12.401-11.545C735.339,217.786,739.041,224.539,740.992,230.408z"/>
<path fill="#E8E3CA" d="M833.29,590.466c-0.941,10.45-8.026,9.737-14.452,9.32c-11.443-0.741-14.798-8.159-14.381-18.406
	c0.271-6.658,2.898-11.451,10.276-9.992C825.426,573.502,831.06,580.969,833.29,590.466z"/>
<path fill="#E8E3CA" d="M644.601,174.749c9.896,0.159,15.567,4.757,15.781,14.8c0.159,7.446-3.229,13.201-10.933,13.724
	c-9.537,0.647-15.467-5.63-17.26-14.177C630.287,180.029,636.242,175.803,644.601,174.749z"/>
<path fill="#E8E3CA" d="M701.674,524.843c-7.238-1.769-13.935-5.944-14.178-14.066c-0.229-7.654,3.873-14.533,13.237-14.339
	c10.212,0.213,14.581,6.502,14.023,16.141C714.32,520.113,710.115,524.538,701.674,524.843z"/>
<path fill="#282728" d="M937.373,302.855c0.154,8.431-5.717,11.865-12.535,12.12c-9.123,0.34-15.693-4.172-16.704-14.232
	c-0.841-8.367,3.306-12.227,11.4-12.333C929.388,288.28,934.1,294.566,937.373,302.855z"/>
<path fill="#E8E3CA" d="M967.303,250.846c-1.323,8.614-6.759,12.441-15.124,11.86c-8.442-0.587-13.334-5.57-13.441-14.038
	c-0.101-7.934,2.38-15.415,12.275-13.225C958.722,237.15,966.54,240.699,967.303,250.846z"/>
<path fill="#BFB156" d="M729.978,85.443c0.969-7.033,0.081-16.048,10.173-16.396c9.547-0.329,11.785,6.61,10.742,15.032
	c-0.978,7.888-0.081,18.02-11.423,17.835C729.583,101.754,729.964,92.86,729.978,85.443z"/>
<path fill="#D6A1A6" d="M834.221,110.923c-6.893-0.936-17.091,1.481-17.256-8.593c-0.165-10.005,8.42-16.591,18.027-15.948
	c7.472,0.5,17.902,3.751,17.825,13.457C852.729,110.82,842.063,109.763,834.221,110.923z"/>
<path fill="#9DD2CA" d="M61.198,599.497c-0.015,6.979-3.492,12.939-9.965,9.845c-7.977-3.814-21.896,1.262-23.425-12.412
	c-0.889-7.948,6.41-10.413,13.498-10.654C51.099,585.941,59.113,588.445,61.198,599.497z"/>
<path fill="#E8E3CA" d="M546.562,485.593c-0.138,9.428-6.658,13.587-14.213,13.313c-10.046-0.364-12.912-9.646-13.313-17.544
	c-0.416-8.203,6.799-10.21,13.855-9.831C541.586,471.998,545.911,477.139,546.562,485.593z"/>
<path fill="#E8E3CA" d="M966.414,412.533c-1.654,7.731-7.395,10.092-14.494,9.49c-10.054-0.852-14.29-7.289-13.33-16.785
	c0.734-7.25,4.348-12.732,12.882-10.354C960.038,397.273,965.232,403.158,966.414,412.533z"/>
<path fill="#E7E1B1" d="M616.034,254.126c-0.495,6.449-4.05,9.225-9.847,6.379c-8.502-4.173-20.511-5.27-22.375-16.724
	c-1.104-6.781,5.301-9.797,11.904-7.47C604.722,239.486,615.767,240.809,616.034,254.126z"/>
<path fill="#E8E3CA" d="M550.199,396.441c-8.809-1.069-13.135-6.297-13.184-14.938c-0.042-7.564,3.628-13.757,11.407-13.252
	c10.389,0.675,12.162,9.794,12.76,18.139C561.699,393.59,557.191,396.691,550.199,396.441z"/>
<path fill="#E7E1B1" d="M318.321,262.712c-0.993,8.458-5.555,9.96-10.736,9.403c-10.81-1.16-18.883-8.239-20.895-17.665
	c-1.634-7.657,7.545-6.361,12.793-5.947C309.475,249.291,314.732,256.114,318.321,262.712z"/>
<path fill="#E7E1B1" d="M949.384,362.231c8.199,2.933,19.616,3.471,21.369,15.684c0.774,5.396-5.146,8.845-10.271,8.007
	c-9.161-1.497-17.258-6.539-20.782-15.172C937.168,364.548,942.958,362.601,949.384,362.231z"/>
<path fill="#9DD2CA" d="M981.056,322.379c-3.562,7.171-9.491,9.482-16.406,7.655c-8-2.114-16.862-5.034-16.883-15.235
	c-0.017-7.882,6.895-8.718,12.728-6.88C968.671,310.496,978.885,310.992,981.056,322.379z"/>
<path fill="#E8E3CA" d="M901.376,501.225c-7.565-1.426-14.896-5.11-15.552-14.529c-0.484-6.952,5.566-9.351,11.579-9.523
	c9.498-0.273,15.309,4.257,15.635,14.234C913.274,498.631,909.039,501.375,901.376,501.225z"/>
<path fill="#E8E3CA" d="M349.841,576.79c7.128,3.604,13.228,8.127,12.705,16.478c-0.469,7.488-5.605,11.944-13.273,10.714
	c-9.127-1.465-11.002-8.538-10.161-16.523C339.786,581.055,343.32,577.216,349.841,576.79z"/>
<path fill="#282728" d="M84.345,164.182c7.942,0.386,12.486,6.551,13.15,15.599c0.64,8.729-5.179,10.887-12.684,10.504
	c-9.785-0.499-15.045-5.811-15.375-15.367C69.142,166.371,74.855,163.988,84.345,164.182z"/>
<path fill="#E7E1B1" d="M122.309,287.932c9.8,3.436,20.647,4.482,22.269,16.809c0.608,4.623-3.247,8.029-7.833,6.737
	c-9.187-2.589-19.972-4.498-23.509-14.704C111.339,291.301,118.349,289.832,122.309,287.932z"/>
<path fill="#E8E3CA" d="M853.641,491.873c-0.587,7.348-3.983,13.287-11.693,12.809c-8.927-0.556-11.341-8.722-12.062-15.901
	c-0.618-6.146,3.198-11.597,10.113-10.893C847.713,478.672,853.854,482.576,853.641,491.873z"/>
<path fill="#E8E3CA" d="M803.779,518.76c-0.914,8.009-5.564,14.232-13.025,15.336c-8.036,1.188-10.657-5.721-10.81-12.744
	c-0.158-7.249,3.003-12.725,10.678-13.643C798.407,506.778,802.394,511.381,803.779,518.76z"/>
<path fill="#E7E1B1" d="M880.099,531.786c8,0.916,12.713,5.043,12.425,12.778c-0.231,6.245-3.745,11.569-10.615,11.157
	c-7.936-0.477-14.976-5.354-15.522-13.188C865.825,534.507,874.234,533.544,880.099,531.786z"/>
<path fill="#E8E3CA" d="M354.902,100.322c7.2-0.193,13.016,1.548,12.992,10.293c-0.021,7.345-3.416,12.671-11.043,13.348
	c-7.746,0.687-11.891-4.079-12.78-11.422C343.117,104.66,346.653,100.287,354.902,100.322z"/>
<path fill="#E8E3CA" d="M209.319,491.582c-1.158,9.249-7.568,9.527-14.29,9.027c-8.501-0.632-10.786-6.066-9.23-13.389
	c1.523-7.17,6.163-11.491,13.814-9.789C206.979,479.069,209.491,484.809,209.319,491.582z"/>
<path fill="#E8E3CA" d="M803.929,64.802c-3.084,5.883-3.117,14.935-12.14,12.985c-6.475-1.399-11.308-7.109-11.425-14.368
	c-0.126-7.829,4.766-12.256,12.452-11.774C800.751,52.142,803.563,57.825,803.929,64.802z"/>
<path fill="#E8E3CA" d="M541.541,357.08c-0.312,8.389-4.826,11.073-11.396,10.436c-7.277-0.705-12.668-4.547-12.282-12.427
	c0.375-7.668,5.425-11.952,13.123-11.059C538.864,344.944,541.402,350.849,541.541,357.08z"/>
<path fill="#E7E1B1" d="M566.326,71.263c-0.533,7.476-5.243,9.942-11.788,8.979c-7.296-1.073-12.37-5.487-11.782-13.195
	c0.585-7.661,5.682-11.929,13.525-10.448C563.975,58.053,566.557,63.919,566.326,71.263z"/>
<path fill="#E8E3CA" d="M121.223,565.511c7.293,0.547,12.999,3.685,13.446,11.47c0.448,7.8-4.492,12.42-12.113,12.156
	c-7.72-0.267-11.388-5.68-11.741-13.123C110.478,568.916,114.225,565.534,121.223,565.511z"/>
<path fill="#E8E3CA" d="M697.82,576.803c7.404,0.96,12.087,5.009,11.454,12.74c-0.633,7.727-6.125,10.912-13.48,10.976
	c-7.147,0.062-10.289-3.971-9.932-10.747C686.254,582.356,690.146,577.831,697.82,576.803z"/>
<path fill="#E8E3CA" d="M525,417.129c-0.936,7.158-5.714,9.748-11.842,10.007c-8.253,0.349-14.913-2.866-15.066-11.962
	c-0.133-7.943,6.754-7.787,12.461-7.763C517.49,407.439,523.357,409.348,525,417.129z"/>
<path fill="#E8E3CA" d="M240.692,86.688c5.837,2.817,12.077,6.266,11.654,13.612c-0.468,8.135-7.177,9.982-14.149,9.401
	c-7.329-0.611-9.021-5.841-8.332-12.129C230.552,91.297,233.696,87.121,240.692,86.688z"/>
<path fill="#E7E1B1" d="M487.561,506.492c-0.124,5.934-3.283,9.949-10.25,9.621c-7.088-0.335-13.033-3.184-12.467-11.381
	c0.46-6.662,5.618-9.257,11.945-9.244C483.509,495.502,487.241,498.826,487.561,506.492z"/>
<path fill="#E7E1B1" d="M186.496,119.362c7.249,1.454,12.693,5.231,12.502,12.692c-0.191,7.427-6.398,8.679-12.37,7.652
	c-7.111-1.222-11.885-5.451-10.819-13.306C176.625,120.386,181.6,119.465,186.496,119.362z"/>
</svg>
